<svg id="Layer_1" data-name="Layer 1" xmlns="http://www.w3.org/2000/svg" viewBox="0 0 131 88.27"><path d="M112.59,38.67A28.92,28.92,0,0,0,83.81,12.21a25.07,25.07,0,0,0-3.8.29A34.92,34.92,0,0,0,18.4,32.57a28.83,28.83,0,0,0,10.47,55.7H119.8l1.26-1.1a28.69,28.69,0,0,0-8.47-48.5Zm3.77,40.69H28.87a19.91,19.91,0,0,1-8.15-38.11,29.78,29.78,0,0,1,21.61,2.07c-1.57,3-3.15,6-4.83,9.12l20.4-5c-2.45-6.56-4.86-13-7.34-19.69L45.67,37A39.89,39.89,0,0,0,27.3,33,26,26,0,0,1,74.54,20l1.73,2.45,2.93-.7a19.74,19.74,0,0,1,24.58,19.21c0,.19-.07.49-.08.84l-.12,3.59,3.47.88a19.77,19.77,0,0,1,9.31,33.13Z" fill="#fff"/></svg>